<?xml version="1.0" standalone="no"?>
<!DOCTYPE svg PUBLIC "-//W3C//DTD SVG 20010904//EN"
 "http://www.w3.org/TR/2001/REC-SVG-20010904/DTD/svg10.dtd">
<svg version="1.0" xmlns="http://www.w3.org/2000/svg"
 width="100.000000pt" height="100.000000pt" viewBox="0 0 100.000000 100.000000"
 preserveAspectRatio="xMidYMid meet">
<metadata>
Created by potrace 1.11, written by Peter Selinger 2001-2013
</metadata>
<g transform="translate(0.000000,100.000000) scale(0.100000,-0.100000)"
fill="#000000" stroke="none">
<path d="M401 904 c-135 -35 -242 -131 -291 -261 -97 -258 93 -545 370 -557
118 -6 215 30 302 112 231 216 150 589 -152 697 -61 22 -163 26 -229 9z m249
-109 c199 -102 243 -367 87 -524 -23 -24 -64 -55 -92 -69 -44 -24 -61 -27
-145 -26 -113 0 -161 18 -232 88 -73 72 -93 123 -93 236 0 106 17 154 78 221
73 81 147 111 262 106 64 -3 91 -9 135 -32z"/>
<path d="M378 658 c-4 -11 -3 -302 1 -319 2 -11 61 -8 62 4 1 7 1 35 2 63 1
48 2 51 26 49 21 0 32 -12 58 -60 26 -49 36 -60 61 -62 17 -2 33 0 36 6 4 5
-8 36 -26 69 l-33 60 28 27 c53 54 25 153 -47 167 -59 11 -164 9 -168 -4z
m160 -60 c19 -19 15 -66 -7 -78 -23 -12 -80 -14 -82 -2 -1 4 -2 26 -3 50 l-2
42 41 0 c22 0 46 -5 53 -12z"/>
</g>
</svg>
