<?xml version="1.0" standalone="no"?>
<!DOCTYPE svg PUBLIC "-//W3C//DTD SVG 20010904//EN"
 "http://www.w3.org/TR/2001/REC-SVG-20010904/DTD/svg10.dtd">
<svg version="1.0" xmlns="http://www.w3.org/2000/svg"
 width="700.000000pt" height="700.000000pt" viewBox="0 0 700.000000 700.000000"
 preserveAspectRatio="xMidYMid meet">
<metadata>
Created by potrace 1.11, written by Peter Selinger 2001-2013
</metadata>
<g transform="translate(0.000000,700.000000) scale(0.100000,-0.100000)"
fill="#000000" stroke="none">
<path d="M588 6108 c-2 -7 -4 -465 -3 -1018 l0 -1004 45 -8 c25 -4 61 -10 80
-12 219 -28 518 -68 530 -71 8 -2 42 -7 75 -10 33 -3 67 -8 75 -10 8 -2 40 -6
70 -10 30 -3 69 -7 85 -10 37 -6 85 -12 150 -20 28 -3 82 -10 120 -16 39 -5
88 -12 110 -14 22 -3 55 -7 73 -10 37 -6 77 -11 147 -20 28 -3 61 -8 75 -10
14 -2 81 -11 150 -20 69 -9 139 -18 155 -20 17 -3 68 -10 115 -16 47 -6 94
-13 105 -14 37 -6 119 -16 165 -21 25 -2 56 -7 70 -9 44 -8 84 -14 135 -20 28
-3 64 -7 80 -10 17 -2 53 -7 80 -10 28 -3 57 -8 65 -10 8 -2 40 -6 71 -10 31
-3 66 -7 76 -9 11 -3 44 -7 74 -10 52 -6 108 -14 159 -21 14 -2 63 -9 110 -15
47 -5 95 -12 107 -14 12 -3 46 -7 75 -10 29 -4 64 -8 78 -10 14 -2 50 -7 80
-11 30 -4 64 -9 75 -11 11 -1 40 -5 65 -8 25 -3 95 -12 155 -21 61 -8 128 -17
150 -20 168 -21 203 -26 226 -30 14 -3 42 -6 62 -7 50 -4 33 -15 -33 -22 -30
-3 -89 -10 -130 -16 -41 -5 -93 -12 -115 -15 -21 -2 -75 -10 -120 -16 -44 -6
-96 -12 -115 -14 -19 -3 -44 -6 -55 -9 -11 -2 -49 -7 -85 -11 -36 -3 -72 -8
-80 -10 -8 -2 -37 -7 -65 -10 -27 -3 -65 -7 -83 -10 -144 -19 -200 -27 -222
-30 -14 -3 -47 -7 -75 -10 -27 -3 -59 -7 -70 -9 -11 -2 -45 -7 -76 -10 -31 -4
-67 -9 -80 -11 -13 -3 -51 -7 -84 -10 -33 -3 -67 -8 -75 -10 -8 -2 -40 -7 -70
-10 -30 -3 -66 -8 -80 -10 -14 -2 -45 -7 -70 -10 -25 -3 -56 -7 -70 -10 -14
-2 -47 -7 -75 -10 -27 -3 -61 -8 -75 -10 -14 -2 -45 -7 -70 -9 -25 -3 -78 -10
-118 -15 -40 -6 -94 -13 -120 -16 -26 -3 -58 -8 -72 -10 -14 -2 -63 -9 -110
-15 -47 -6 -96 -13 -110 -15 -14 -2 -50 -7 -80 -10 -30 -4 -62 -8 -70 -10 -8
-1 -42 -6 -75 -10 -32 -4 -66 -8 -75 -10 -8 -1 -37 -6 -65 -9 -27 -4 -84 -11
-125 -16 -42 -6 -94 -13 -115 -16 -22 -2 -56 -7 -75 -9 -74 -10 -196 -26 -226
-31 -17 -3 -46 -6 -65 -8 -45 -5 -120 -15 -194 -26 -33 -5 -87 -12 -120 -15
-33 -3 -67 -8 -75 -10 -8 -2 -42 -7 -75 -11 -33 -3 -67 -8 -76 -9 -9 -2 -40
-6 -70 -10 -30 -4 -72 -10 -94 -14 l-40 -7 0 -1013 c0 -557 3 -1015 8 -1018 4
-2 27 4 50 16 23 11 92 40 152 66 61 26 124 53 140 60 17 8 75 32 130 56 55
23 118 49 140 59 22 10 137 59 255 110 118 50 229 97 245 105 17 7 107 45 200
85 94 40 188 80 210 90 22 10 153 66 290 124 138 59 268 115 290 125 141 63
563 241 573 241 7 0 12 4 12 9 0 5 11 11 24 15 18 4 1247 528 1361 580 17 8
75 33 130 56 55 23 118 50 140 60 22 10 85 36 140 59 55 23 107 45 115 49 8 5
351 152 762 328 411 175 748 321 748 324 0 3 -37 20 -83 39 -45 19 -104 45
-132 57 -27 12 -221 95 -430 185 -209 89 -398 170 -420 180 -22 10 -213 92
-425 182 -212 90 -407 174 -435 186 -27 12 -59 26 -70 31 -71 30 -235 100
-270 116 -16 7 -284 121 -595 254 -311 133 -578 247 -595 255 -16 7 -253 109
-525 225 -272 117 -508 218 -525 226 -51 22 -1597 684 -1600 684 -2 0 -5 -6
-7 -12z"/>
</g>
</svg>
